<?xml version="1.0" standalone="no"?>
<!DOCTYPE svg PUBLIC "-//W3C//DTD SVG 20010904//EN"
 "http://www.w3.org/TR/2001/REC-SVG-20010904/DTD/svg10.dtd">
<svg version="1.0" xmlns="http://www.w3.org/2000/svg"
 width="700.000000pt" height="700.000000pt" viewBox="0 0 700.000000 700.000000"
 preserveAspectRatio="xMidYMid meet">
<metadata>
Created by potrace 1.14, written by Peter Selinger 2001-2017
</metadata>
<g transform="translate(0.000000,700.000000) scale(0.100000,-0.100000)"
fill="#000000" stroke="none">
<path d="M1820 6989 c-468 -45 -900 -249 -1231 -580 -329 -330 -531 -759 -579
-1228 -14 -143 -14 -3221 1 -3362 42 -418 199 -790 468 -1111 326 -390 817
-645 1340 -698 139 -14 3209 -14 3352 0 477 47 904 247 1238 579 336 336 536
763 581 1246 14 148 14 3169 0 3320 -44 484 -246 919 -581 1254 -303 303 -669
489 -1119 568 -86 15 -255 17 -1740 19 -905 1 -1683 -2 -1730 -7z m2765 -1608
c127 -15 274 -48 353 -77 239 -90 402 -270 476 -528 67 -230 79 -477 73 -1463
-5 -793 -10 -897 -44 -956 -42 -71 -121 -94 -195 -58 -56 27 -476 324 -505
357 -57 63 -2 174 84 174 35 0 64 -17 232 -136 106 -75 196 -133 199 -129 4 3
8 324 10 713 4 690 -5 1083 -29 1252 -46 333 -170 502 -424 579 -192 59 -402
71 -1275 71 -716 0 -950 -8 -1119 -36 -380 -64 -524 -230 -582 -669 -17 -130
-25 -1653 -9 -1884 23 -355 75 -525 197 -648 133 -133 308 -183 716 -204 290
-15 1613 -7 1798 11 135 13 136 13 167 -9 55 -39 59 -118 9 -169 -30 -30 -90
-38 -364 -53 -270 -14 -1663 -6 -1808 10 -379 43 -590 136 -730 323 -125 167
-181 360 -205 713 -13 194 -13 1596 0 1785 27 393 94 597 248 762 157 168 380
249 767 278 166 12 1851 5 1960 -9z m-1365 -1171 c97 -32 250 -106 525 -255
302 -163 408 -245 458 -353 32 -68 32 -226 0 -294 -58 -126 -226 -239 -733
-494 -233 -116 -294 -137 -405 -138 -81 -1 -97 2 -157 31 -88 41 -154 104
-189 176 -48 103 -54 165 -53 592 0 370 2 394 22 470 28 101 74 170 145 219
120 83 237 97 387 46z"/>
<path d="M2995 4006 c-96 -45 -106 -85 -112 -466 -6 -330 5 -499 34 -559 19
-37 69 -77 112 -88 67 -17 229 52 609 258 323 175 372 217 372 312 0 47 -3 54
-48 96 -57 55 -182 130 -468 280 -322 169 -423 203 -499 167z"/>
</g>
</svg>
